<?xml version="1.0" encoding="utf-8"?>
<!-- Generator: Adobe Illustrator 23.0.1, SVG Export Plug-In . SVG Version: 6.00 Build 0)  -->
<svg version="1.1" id="Capa_1" xmlns="http://www.w3.org/2000/svg" xmlns:xlink="http://www.w3.org/1999/xlink" x="0px" y="0px"
	 viewBox="0 0 102 20" style="enable-background:new 0 0 102 20;" xml:space="preserve">
<style type="text/css">
	.st0{fill:#EE3B40;}
</style>
<g>
	<path class="st0" d="M37.5,16.9l-0.4-1.6h-3.4l-0.9,1.6h-2.3l4.7-8.5h2.6l2.1,8.5 M36.4,12c-0.1-0.5-0.2-0.9-0.2-1.4h0
		c-0.2,0.5-0.4,1-0.7,1.5l-0.9,1.6h2.3L36.4,12z"/>
	<path class="st0" d="M46.7,16.9L45,13.2c-0.3-0.7-0.6-1.3-0.7-1.9c-0.1,0.6-0.2,1.5-0.3,2.3l-0.5,3.3h-2.2l1.4-8.5h2.9l1.6,3.4
		c0.3,0.7,0.6,1.4,0.9,2.1c0-0.7,0.2-1.9,0.3-2.7l0.5-2.8h2.2l-1.4,8.5"/>
	<path class="st0" d="M66.1,16.9l-1.8-3.3h-0.1l-0.5,3.3h-2.3l1.4-8.5c0.8-0.1,1.9-0.1,3.1-0.1c2.3,0,3.6,0.7,3.3,2.5
		C69,12,68,12.9,66.6,13.2c0.2,0.3,0.4,0.6,0.6,1l1.7,2.7 M65.4,9.9c-0.2,0-0.5,0-0.6,0l-0.4,2.2c0.1,0,0.4,0,0.6,0
		c1,0,1.7-0.4,1.8-1.2C66.9,10.3,66.5,9.9,65.4,9.9"/>
	<polyline class="st0" points="70.1,16.9 71.4,8.3 77,8.3 76.8,10 73.5,10 73.2,11.7 76.3,11.7 76,13.3 72.9,13.3 72.6,15.2 
		75.9,15.2 75.6,16.9 	"/>
	<path class="st0" d="M83.8,16.9l-0.4-1.6H80l-0.9,1.6h-2.3l4.7-8.5h2.6l2.1,8.5 M82.7,12c-0.1-0.5-0.2-0.9-0.2-1.4h0
		c-0.2,0.5-0.4,1-0.7,1.5l-0.9,1.6h2.3L82.7,12z"/>
	<path class="st0" d="M92.7,16.9L91,13.2c-0.3-0.7-0.6-1.3-0.7-1.9c-0.1,0.6-0.2,1.5-0.3,2.3l-0.5,3.3h-2.2l1.4-8.5h2.9l1.6,3.4
		c0.3,0.7,0.6,1.4,0.9,2.1c0-0.7,0.2-1.9,0.3-2.7l0.5-2.8H97l-1.4,8.5"/>
	<polyline class="st0" points="97.9,16.9 99.3,8.3 101.6,8.3 100.2,16.9 	"/>
	<path class="st0" d="M56.3,8.3c-1,0-2.2,0-2.8,0l-0.3,0L51.9,17l0.9,0c0.6,0,1.3,0.1,2.1,0.1c1.9,0,3.4-0.6,4.4-1.7
		c0.9-1,1.4-2.3,1.3-3.8C60.5,9.5,59,8.4,56.3,8.3 M55,15.2l-0.5,0c0.1-0.4,0.8-4.7,0.8-5c0.2,0,0.5,0,0.9,0c1.7,0,2,0.8,2,1.5
		C58.3,12.9,57.7,15.2,55,15.2"/>
	<path class="st0" d="M25.2,5c-1.5-4-8.2-5.2-15-2.7c-6.8,2.6-11,7.9-9.5,11.9c1.5,4,8.2,5.2,15,2.7C22.5,14.4,26.7,9,25.2,5
		 M9.6,16.7c-0.4-0.1-0.5-0.4-0.1-1l1.8-3.1h5.1l0.4,2c0.1,0.5-0.1,0.8-0.3,0.9l-0.4,0.1C13.8,16.4,11.6,16.8,9.6,16.7 M12,11.4
		l2.9-4.8l1.2,4.8L12,11.4z M20.5,13.2c-0.5,0.2-0.7-0.3-0.7-0.3l-2.2-8.3c0,0-0.3-1.5-1.6-1.5h-0.4l-1.8,3.1l-5.8,9.3
		c-0.4,0.6-0.8,0.8-1.2,0.7c-1.8-0.6-3.1-1.6-3.7-3.1C1.9,9.7,5.5,5.1,11.3,2.9c5.8-2.2,11.6-1.1,12.9,2.4
		C25.1,7.8,23.6,10.8,20.5,13.2"/>
</g>
</svg>
